/* XPM */
static char *_5ea6fed586047eb84d93811646af3e3LHRfySgF5zQR3qzS[] = {
/* columns rows colors chars-per-pixel */
"32 32 224 2 ",
"   c #001D00",
".  c #012401",
"X  c #022A00",
"o  c #092A08",
"O  c #023400",
"+  c #033900",
"@  c #0A3C00",
"#  c #0C3408",
"$  c #123B0D",
"%  c #133313",
"&  c #193C13",
"*  c #1D3C1B",
"=  c #183715",
"-  c #213E1F",
";  c #0D4504",
":  c #0D4B00",
">  c #074400",
",  c #124C03",
"<  c #144A0B",
"1  c #16470C",
"2  c #0B5D00",
"3  c #125401",
"4  c #135C02",
"5  c #1B5A0D",
"6  c #1A5807",
"7  c #1A4414",
"8  c #1A4812",
"9  c #1B5213",
"0  c #224E18",
"q  c #225C13",
"w  c #25541D",
"e  c #28591F",
"r  c #1F6805",
"t  c #0F6200",
"y  c #246A0D",
"u  c #276516",
"i  c #397A1E",
"p  c #2B5C22",
"a  c #2C5628",
"s  c #33562D",
"d  c #375D31",
"f  c #3A5D34",
"g  c #335532",
"h  c #2B4D27",
"j  c #2E6321",
"k  c #377925",
"l  c #3B6236",
"z  c #3F633A",
"x  c #3D6A33",
"c  c #3F7534",
"v  c #316928",
"b  c #436C3C",
"n  c #456139",
"m  c #46793A",
"M  c #476944",
"N  c #4B7344",
"B  c #4D7A44",
"V  c #4A7645",
"C  c #537C4C",
"Z  c #54734D",
"A  c #557C52",
"S  c #5E7A52",
"D  c #516D4D",
"F  c #348B14",
"G  c #2E850F",
"H  c #3C8222",
"J  c #43921F",
"K  c #50AF1F",
"L  c #49B518",
"P  c #43AE12",
"I  c #448A29",
"U  c #4A942B",
"Y  c #499926",
"T  c #4C8C3B",
"R  c #488736",
"E  c #4A9433",
"W  c #4E9636",
"Q  c #54993B",
"!  c #4EA22A",
"~  c #54A72F",
"^  c #57B22A",
"/  c #5CAC3B",
"(  c #53B629",
")  c #61AC3E",
"_  c #61B63C",
"`  c #53C31C",
"'  c #6AFB0C",
"]  c #67FD06",
"[  c #6CF614",
"{  c #6BF912",
"}  c #6EF41C",
"|  c #6EF91A",
" . c #70F31C",
".. c #5CC82A",
"X. c #6AC73B",
"o. c #6FD43B",
"O. c #70D739",
"+. c #66D02F",
"@. c #73EF26",
"#. c #74EF2B",
"$. c #78ED2F",
"%. c #73F324",
"&. c #74F22B",
"*. c #78F22B",
"=. c #76EB34",
"-. c #7BEB3B",
";. c #78E73A",
":. c #79F233",
">. c #7DF23C",
",. c #6EE42C",
"<. c #558A46",
"1. c #53834B",
"2. c #558649",
"3. c #569449",
"4. c #558151",
"5. c #598354",
"6. c #5C8A55",
"7. c #5E8A5A",
"8. c #5C855A",
"9. c #4F9340",
"0. c #63895E",
"q. c #6B875F",
"w. c #699C5C",
"e. c #5FAE44",
"r. c #5EB041",
"t. c #63AC47",
"y. c #67B948",
"u. c #69A457",
"i. c #668C64",
"p. c #6A8865",
"a. c #6D9C64",
"s. c #6E966A",
"d. c #6A9563",
"f. c #73936C",
"g. c #739B6A",
"h. c #759474",
"j. c #799876",
"k. c #6EA461",
"l. c #74A665",
"z. c #73A864",
"x. c #7AAD6B",
"c. c #76A669",
"v. c #7CB868",
"b. c #7CA475",
"n. c #7CA876",
"m. c #6EC845",
"M. c #78D848",
"N. c #7DD553",
"B. c #7CEB42",
"V. c #7DE247",
"C. c #7CC262",
"Z. c #80EE3D",
"A. c #829E76",
"S. c #85B76E",
"D. c #85B96E",
"F. c #82AE77",
"G. c #83A57A",
"H. c #82AD7C",
"J. c #89A57D",
"K. c #84B374",
"L. c #86BB72",
"P. c #8ABD74",
"I. c #8CBC7C",
"U. c #89B87B",
"Y. c #90BF7B",
"T. c #80DF4F",
"R. c #82DE54",
"E. c #84D75C",
"W. c #81ED42",
"Q. c #84EB4B",
"!. c #83E64C",
"~. c #87E557",
"^. c #88DD68",
"/. c #8EC17A",
"(. c #8CC076",
"). c #91C37D",
"_. c #91D276",
"`. c #94E372",
"'. c #92E16E",
"]. c #89A886",
"[. c #8CB682",
"{. c #8DBC83",
"}. c #87B181",
"|. c #93BD83",
" X c #95B68A",
".X c #9ABB94",
"XX c #A1BD9B",
"oX c #92C284",
"OX c #96CA82",
"+X c #99C687",
"@X c #98C88C",
"#X c #A5C798",
"$X c #ABD798",
"%X c #B1DF9E",
"&X c #B4F29C",
"*X c #A9CBA2",
"=X c #ABD6A5",
"-X c #B2DCAC",
";X c #BAD8AE",
":X c #B5D4AC",
">X c #BEDCB2",
",X c #BBDFB9",
"<X c #B2CCA9",
"1X c #BCE7AB",
"2X c #BCE7B4",
"3X c #B7F5A2",
"4X c #C2DFBB",
"5X c #C2E3BC",
"6X c #C5E9B5",
"7X c #CDFDBC",
"8X c #CBF1BC",
"9X c #CDECC4",
"0X c #C8E8C7",
"qX c #CCF6C8",
"wX c #D2F3C4",
"eX c #D3FDC3",
"rX c #D6F6CB",
"tX c #DAFBCB",
"yX c #D5F8CB",
"uX c #DAFAD4",
"iX c #D2EFCE",
"pX c #E2FFD4",
"aX c #E3FEDA",
"sX c #E7FFE5",
/* pixels */
"^.R.~.B.#.%.=.V.'.&X7XeX7X%X+X+X%X7X7X7X3X`.!.-.@.#.B.V.^.^.^.^.",
"r./ ( X.=.=.-.X.t.v.).+XI.x.w.w.x.Y.+XoXv.t.m.;.>.=.X.^ _ r.t.t.",
"5 3 4 F M.Q.M.Y 5 9 w w 0 8 8 8 7 7 w w 9 6 Y M.Q.V.J t 4 9 5 5 ",
"O ; k E Y ! U I j u p p w e p p p w p p p j k Y ! W E k < O O + ",
"O v oXv.q > , m l.x.x.z.z.v.x.x.x.z.z.c.x.c.m < > 6 z.@Xc + + + ",
"k R u.k.0.1.1.1.2.z././.P.).).)./.I./.oXx.6.C A A 6.k.k.9.k k H ",
"C.r.y m =XqX2Xi.7 V U.I.L.I./.I./.U.I.U.1.7 8.2XqX=X<.r Q N.M.M.",
"Q.m.I I w.=XqXs.# c }.oX{.oX{.oXoX{.oX{.B # 8.qX1Xk.R H X.Q.B.B.",
"$.-.M.! 5 7.-Xa.7 V {.{.K.F.H.H.H.H.[.{.4.7 8.-Xd.5 Y M.-.#.%. .",
"%.*.W.o.9.1.6.6.4.b.H.8.d d n l l d A H.n.4.A 8.4.W m.B.*.[ [ [ ",
" .@.-.R.C.m % f h.H.s.z & & 7 - & & l s.n.b.M $ c v.N.-.@.[ ' ' ",
" .#.!.X.k 7 o % a a l i.G.J.G.A.G.H.d.z s g * . 1 k _ B.*.[ ' ] ",
"#.,.m.! 5 $ o % - & h ].rXtXrXrXyXwX Xs = - % o # 5 E m.,. .[ ' ",
"=...F R n.A % D ].j.p. X;XrXpXpXrX4X Xf.h.].D % M n.W F ` %.| ' ",
"B.L t 9.-XH.* p.0X0X.XA.A.4XtXpX4XJ.A.XX,XiXh.- s.2X3.2 P *.| ' ",
"B.K t 9.2Xn.* S iXaX,XS f XXpXaX#Xn Z <XsXiXh.* g.2X3.2 P &.| ' ",
"B...F T {.i.f h.4XpX8Xq.D XXpXaX<XZ q.6XpX5XA.n 0.[.9.G L &.| { ",
"B.N.m.W j b f.[.#X6X8X6X;X8XuXpX9X4X4X8X6X#X Xf.N p R m.V.&.| { ",
"V.N.y.R j C }. XY.#X6X6X8XrXtXtXrX8X6X6X$X X X X2.j R / M.=.%.{ ",
"N.r.y u w.n.{.{.Y.Y.+X).#X6XtXeX6X$XY.Y.Y.I.I.U.H.w.v y K -.&.} ",
"`.r.3 ; m a.{.|.I.P.P.K.I.$X1X6X%XY.P.P.P.P.Y.U.l.1.< > ! V.B.>.",
"_.u.9 O $ N n.{.I.Y.Y.S.D.(._.OXY.S.S.P.P.Y.Y.K.V 1 O < e.N.V.V.",
"1.<.7.7.8.A C d.Y.).Y.S.D.D.D.D.S.S.P.(.Y.Y.f.C A 8.0.7.<.R E I ",
"O z *XuX0Xj.& f F.Y.Y.Y.(.L.D.D.S.P.(.(.Y.K.b - i.5XuX-XV O O + ",
"  f 5XsXsX].o % M g.|.oX).(.P.P.P.oXoXI.c.V * # h.aXsX0XV   . . ",
"O x *XyX0Xj.%   # M n.H.F.I.oXI.{.K.F.G.C %   o i.5XyX-XB + + @ ",
"E T 2.5.A g o     = g g N j..X.Xn.N f g =     . a A 8.1.W U Y Y ",
"R._ y : ; + X % * - * o % A n.H.8.& o * 7 * % X O ; > r ^ M.V.;.",
"W.O.( ! W y + M ].XX].g . 7 a a 7 . h j.XX XD + u U ! K O.:.*.%.",
"@.&.$.Q.~.W y 6.<X4X*XA < , 3 3 , , V #X,X:Xd.u Y N.Q.=.@.} { { ",
"[  .%.*.-.o.) T b z n Q ) ^ ^ ^ ^ ) 3.b z n T / o.=.:.%.| { ' ] ",
"' { [ } @.W.R.I X   @ Q '.Q.W.W.Q.E.) ;   X i N.W.#.} { { ' ] ] "
};
