/* XPM */
static char *_7542494d2d641eb9010d5fd092faa81UxvfeEpakGiAKtGF[] = {
/* columns rows colors chars-per-pixel */
"32 32 8 1 ",
"  c None",
". c #0C1820",
"X c #4E6743",
"o c #7B8674",
"O c #82A767",
"+ c #94BE75",
"@ c #CADABA",
"# c #E5F7D3",
/* pixels */
"....    ................    ....",
"....    ................    ....",
"..@#o...O++++++++++++++O...o#@..",
"..@#o...O++++++++++++++O...o#@..",
"  ..@#o.O++++++++++++++O.o#@..  ",
"  ..@#o.O++++++++++++++O.o#@..  ",
"    ....O++++++++++++++O....    ",
"    ....O++++++++++++++O....    ",
"      ..O++++++++++++++O..      ",
"      ..O++++++++++++++O..      ",
"    ......O++++++++++O......    ",
"    ......O++++++++++O......    ",
"  ..@#o.@#o..........o#@.o#@..  ",
"  ..@#o.@#o..........o#@.o#@..  ",
"  ..@#o.@#o.O+++++..###@.o#@..  ",
"  ..@#o.@#o.O+++++..###@.o#@..  ",
"    ....@###o.....#####@....    ",
"    ....@###o.....#####@....    ",
"  ..O+X.@###o.O+..#####@.X+O..  ",
"  ..O+X.@###o.O+..#####@.X+O..  ",
"  ......@#####o.#######@......  ",
"  ......@#####o.#######@......  ",
"..@###o..................o###@..",
"..@###o..................o###@..",
"..@###o.O++++++++++++++O.o###@..",
"..@###o.O++++++++++++++O.o###@..",
"  ............................  ",
"  ............................  ",
"      ..@###o.    ..###@..      ",
"      ..@###o.    ..###@..      ",
"        ....        ....        ",
"        ....        ....        "
};
