/* XPM */
static char *_8976_4904cb98e29adf6e17519216907e093076527cadc3e7c5e9f45ae7bb87e07d57[] = {
/* columns rows colors chars-per-pixel */
"32 32 15 1 ",
"  c #2C664E",
". c #2E674F",
"X c #2F6750",
"o c #2F6850",
"O c #306850",
"+ c #376D51",
"@ c #84BD6B",
"# c #85C06B",
"$ c #86C06C",
"% c #8BC372",
"& c #8BC373",
"* c #8CC373",
"= c #DDF6CC",
"- c #E0F8CF",
"; c #E1F8CF",
/* pixels */
"$$$$$$$$$$$$$$$$$$$$$$$$$$$$$$$$",
"$$$$$$$$$$$$$$$$$$$$$$$$$$$$$$$$",
"$$$$$$$$$$$$$$$$$$$-$$$$$$$-$$$$",
"$$$$$$$$$$$X$$$$$$- -$$$$$- -$$$",
"$$$$$$$$$X$X$X$$$$.;$$$$$$.;$$$$",
"$$X$$$$$$$$$$$$$$$$XX$$$$$$XX$$$",
"$$o$$$$$$$$$$$$$$$$X$$$$$$$X$$$$",
"X$X$X$$$$$$$$$$$$$$$$$$$$$$$$$$$",
"$$$$$$$$$$$$$$$$$$$$$$$$$$$$$$$$",
"$oo$$$$$$$$$$$$$$$-$$$$$$$$$$$$$",
"$oO$oX$$$$$$$oo$$- -$$$$$$$$$$$$",
"$$X$X$$$$$$$$Oo$$.;$$$-$$$$-$$$$",
"$$$$$$$$$$Xo$o$$$$XX$- -$$- -$$$",
"$$$$$$$$$$$X$X$$$$X$$.;$$$.;$$$$",
"$$$$$$$$$$$$$$$$$$$$$$XX$$$XX$$$",
"$$$$$$$$$$$$$$$$$$$$$$X$$$$X$$$$",
"$$$$$$$$$$$$$$$$$$$$$$$$$$$$$$$$",
"$$X$$$$$$$$$$$$$$$$-$$$$$$-$$$$$",
"$X$X$$$$$$X$$$$$$$- -$$$$-#-$$$$",
"$X$$$$$$$X$X$$$$$-#-$$-$$$-$$$$$",
"$$$$$X$$$$$X$$X$- -.X; -$$$$$$$$",
"$$$$X$X$$$$$$X$X.;$o$.;$$$$$$$$$",
"$$$$$$X$$$$$$X$$$X$X$$XX$$$$$$$$",
"$$$$$$$$$$$$$$$$$o$$$$o$$$$$$$$$",
"$$$$$$$$$$$$$$$$$@$$$$@$$$$$$$$$",
"$$$$$$$$$$$$$$$$$$$$$$$$$$$$$$$$",
"$$$$$$$$$$$$+$$$$$+$$$$$$$$$$$$$",
"$$$$$$$$$$$+@+$$$+@+$$$$$$$$=$$$",
"$$+$$$$$$$$@$o$$$@$o$$+$$$$=%=$$",
"$+@+$$$$$$$$$@$$$$$@$+@+$$$&=&$$",
"$o$@$$$$$$$$$$$$$$$$$o$@$$$$*$$$",
"$@$$$$$$$$$$$$$$$$$$$@$$$$$$$$$$"
};
