/* XPM */
static char *_1231_09f1060c611d7d8be9375310a211cdd5c65dc19519eb173029ed1545a83b6443[] = {
/* columns rows colors chars-per-pixel */
"33 32 117 2 ",
"   c #00121E",
".  c #041520",
"X  c #051520",
"o  c #061721",
"O  c #071721",
"+  c #061821",
"@  c #071821",
"#  c #071921",
"$  c #081921",
"%  c #0B1C22",
"&  c #0A1E24",
"*  c #111F25",
"=  c #121F25",
"-  c #0E2023",
";  c #0B2024",
":  c #0B2125",
">  c #0D2526",
",  c #0F2828",
"<  c #122025",
"1  c #112426",
"2  c #102727",
"3  c #112628",
"4  c #102929",
"5  c #102A29",
"6  c #102B29",
"7  c #112B2A",
"8  c #162A2A",
"9  c #253C2B",
"0  c #253C2C",
"q  c #2F3B36",
"w  c #34403A",
"e  c #355134",
"r  c #375435",
"t  c #395736",
"y  c #385737",
"u  c #3F5F3A",
"i  c #40613B",
"p  c #3F4B42",
"a  c #3F4B43",
"s  c #2C5E49",
"d  c #2C5F4A",
"f  c #2D604A",
"g  c #2D604B",
"h  c #2E624C",
"j  c #2E634D",
"k  c #2F644D",
"l  c #2F654E",
"z  c #30664F",
"x  c #31674F",
"c  c #316750",
"v  c #3A6751",
"b  c #316850",
"n  c #326950",
"m  c #336951",
"M  c #3B6D55",
"N  c #3D6E56",
"B  c #3F6F57",
"V  c #3C7152",
"C  c #404C43",
"Z  c #414C43",
"A  c #414D44",
"S  c #424D44",
"D  c #424E45",
"F  c #455047",
"G  c #455147",
"H  c #4B584C",
"J  c #535F52",
"K  c #556154",
"L  c #556254",
"P  c #5D6B5B",
"I  c #606D5D",
"U  c #4F7A60",
"Y  c #507960",
"T  c #507A61",
"R  c #637160",
"E  c #5D8268",
"W  c #5E8469",
"Q  c #63886D",
"!  c #64886E",
"~  c #698C71",
"^  c #6B8E72",
"/  c #7AB063",
"(  c #7BB264",
")  c #7BB467",
"_  c #7CB465",
"`  c #7EB667",
"'  c #7CB568",
"]  c #81BA69",
"[  c #83BD6A",
"{  c #84BF6B",
"}  c #85C06C",
"|  c #C7E0BA",
" . c #C8E2BC",
".. c #CBE3BC",
"X. c #CAE3BD",
"o. c #CBE4BE",
"O. c #CEE5BF",
"+. c #CCE6BE",
"@. c #CEE5C0",
"#. c #CEE8C1",
"$. c #CFE8C1",
"%. c #D5EEC6",
"&. c #D7F0C8",
"*. c #D8F0C9",
"=. c #D8F1C9",
"-. c #D9F1C9",
";. c #D9F2CA",
":. c #DBF4CB",
">. c #DBF5CB",
",. c #DBF6CB",
"<. c #DBF4CC",
"1. c #DCF4CC",
"2. c #DCF5CC",
"3. c #DDF6CD",
"4. c #DEF7CE",
"5. c #DFF7CF",
"6. c #DFF8CF",
/* pixels */
"( @ @ @ @ @ @ @ @ @ @ @ @ @ @ @ @ @ @ @ @ @ @ @ @ @ @ @ @ @ @ @ @ ",
"@ @ O O O O O O O O O O O O O O O O O O O O O O O O O O O O O O @ ",
"@ : b b b b b b b b b b b b b b b b b b b b b b b b b b b b b b @ ",
"@ : b b b b b b b b b b b b b b b b b b b b b b b b b b b b b b + ",
"@ : b b b b b b b b b b b b b b b b b b b b b b b b b b b b b b D ",
"@ : b b b b b b b b b b b b b b b b b b b b b b b b b b b b b b D ",
"@ : b b b b b b b h O O O O O & b b b b b b b b c O O O O O O O > ",
"@ : b b b b b b z o             6 b b b b b b b c +     . o   X @ ",
"@ : b b b b b b z L 6.6.6.6.6.2.6 b b b b b b b c G 6.,.} B 6.{ @ ",
"@ : b b b b b b z K 3.@ R 6.6.1.6 b b b b b b b c 8 T U V n T V @ ",
"@ : b b b b b b z K 3.@ R 6.6.1.6 b b b b b b b c F 5.>.} B 6.{ @ ",
"@ : b b b b b b z K 3.@ I *.-.1.6 b b b b b b b c > > > > > > > = ",
"@ : b b b b b b z K 3.* * * P 1.6 b b b b b b b b b b b b b b b D ",
"@ ; l l l l l l j K 6.6.6.6.6.1.5 l l l l l l l l l l l l l l k C ",
"$ % @ @ @ @ @ @ @ K 5.5.5.5.5.:.@ @ @ @ @ @ @ @ @ @ @ @ @ @ @ @ 2 ",
"e ` @ @ @ @ @ @ @ @ @ @ @ @ @ @ @ @ @ @ @ @ @ @ @ @ @ @ @ @ @ - _ ",
"@ @ # # # # # # # # # # # # # # # # # # # # # # # # # # # # # # @ ",
"@ 1 T T T T T T T T T T T T T T T T T T T T T T T T T T T T T Y @ ",
"@ w 6.6.6.6.6.6.6.6.6.6.6.6.6.6.6.6.6.6.6.6.6.6.6.6.6.6.6.6.6.4.@ ",
"@ w 6.6.6.6.6.6.6.6.6.6.6.6.6.6.6.6.6.6.6.6.6.6.6.6.6.6.6.6.6.4.@ ",
"@ w 6.6.6.6.6.6.6.6.6.6.6.6.6.6.6.6.6.6.6.6.6.6.6.6.6.6.6.6.6.4.@ ",
"@ w 6.6.6.6.6.6.6.=.=.=.=.=.=.=.;.6.6.6.6.6.6.6.6.=.=.=.=.=.=.&.@ ",
"@ w 6.6.6.6.6.6.<.x g g g g g g W 6.6.6.6.6.6.6.4.g g g g g g f @ ",
"@ w 6.6.6.6.6.6.<.f > > > > > 4 E 6.6.6.6.6.6.6.4.< S Z 0 3 S 9 @ ",
"@ w 6.6.6.6.6.6.:.7 m ^ ! b b z J 6.6.6.6.6.6.6.4.a $.+.' N $.) @ ",
"@ w 6.6.6.6.6.6.:.7 M 6.#.b b z J 6.6.6.6.6.6.6.4.8 T U V n T V @ ",
"@ w 6.6.6.6.6.6.:.7 M 6.#.b N ~ J 6.6.6.6.6.6.6.4.p O...( v @./ @ ",
"@ w 6.6.6.6.6.6.:.7 M =. .b Q %.J 6.6.6.6.6.6.6.4.S S S S S S A @ ",
"@ w 6.6.6.6.6.6.:.7 b b b b b z J 6.6.6.6.6.6.6.6.6.6.6.6.6.6.4.@ ",
"@ q o.o.o.o.o.o.| 7 b b b b b z H o.o.o.o.o.o.o.o.o.o.o.o.o.o.X.@ ",
"t y g g g g g g s 4 g g g g g d , g g g g g g g g g g g g g g f r ",
"} [ u u u u u u u u u u u u u u u u u u u u u u u u u u u u u i ] "
};
