/* XPM */
static char *b82ea95293504b40f847b146e31a25aa27hsJ6QqWryVFKSa[] = {
/* columns rows colors chars-per-pixel */
"32 32 42 1 ",
"  c None",
". c #0C1820",
"X c #2F3735",
"o c #324430",
"O c #39413C",
"+ c #3C5037",
"@ c #42583A",
"# c #455B3C",
"$ c #475E3E",
"% c #4A613F",
"& c #414A42",
"* c #4F574D",
"= c #5F685B",
"- c #646D5F",
"; c #6C7667",
": c #707B6A",
"> c #747F6D",
", c #788371",
"< c #89B06D",
"1 c #8CB46F",
"2 c #8FB771",
"3 c #90B972",
"4 c #91BA73",
"5 c #92BB73",
"6 c #94BE75",
"7 c #9CC380",
"8 c #A3C788",
"9 c #A6C98B",
"0 c #CDDEBD",
"q c #CFE0BF",
"w c #D1E1C1",
"e c #D4E5C4",
"r c #DAEEC7",
"t c #D9EBC9",
"y c #DBEDCA",
"u c #DEF2CB",
"i c #DEF0CD",
"p c #E0F3CE",
"a c #E0F2CF",
"s c #E2F3D0",
"d c #E3F5D1",
"f c #E5F7D3",
/* pixels */
"....    ................    ....",
"....    ................    ....",
"..dfX...3666666666666666#...0f,.",
"..dfX...3666666666666666#...0f,.",
"  ..sfff&.266666666666@.wfff>.  ",
"  ..sfff&.266666666666@.wfff>.  ",
"    ..af&.266666666666@.wf:.    ",
"    ..af&.266666666666@.wf:.    ",
"      ..3666o.......<666#.      ",
"      ..3666o.......<666#.      ",
"    ........yfffffff-.......    ",
"    ........yfffffff-.......    ",
"  ..sfO.if7666ufff8666rf;.qf>.  ",
"  ..sfO.if7666ufff8666rf;.qf>.  ",
"  ..sfO.ifff*.tfff=.efff;.qf>.  ",
"  ..sfO.ifff*.tfff=.efff;.qf>.  ",
"    ..5666afffffffffff9666$.    ",
"    ..5666pfffffffffff9666$.    ",
"  ..5666666666ufff8666666666%.  ",
"  ..5666666666ufff8666666666%.  ",
"  ....36666666666666666666$...  ",
"  ....36666666666666666666$...  ",
"..dfffO.3666666666666666#.qfff,.",
"..dfffO.3666666666666666#.qfff,.",
"..dfffO...266666666666@...qfff,.",
"..dfffO...266666666666@...qfff,.",
"  ............1666+...........  ",
"  ............1666+...........  ",
"      ..ifff*.......efff;.      ",
"      ..ifff*.......efff;.      ",
"        ....        ....        ",
"        ....        ....        "
};
