/* XPM */
static char *_bd6ffdcbc3347beb8eee8a9b22a7d444YVNt1wCacUcMLNh[] = {
/* columns rows colors chars-per-pixel */
"32 32 2 1 ",
"  c None",
". c white",
/* pixels */
"                    ........    ",
"                    ........    ",
"                    ........    ",
"                    ........    ",
"                 ...............",
"                ................",
"                ................",
"                ................",
"                .....       ....",
"                ....        ....",
"                ....        ....",
"                ....        ....",
" ...................        ....",
"....................        ....",
"....................        ....",
"....................        ....",
"....................        ....",
"....................        ....",
"....................        ....",
"....................        ....",
"    .....       ....        ....",
"     ...        ....        ....",
"     ...        ....        ....",
"     ...        ....        ....",
"     ...        ................",
"     ...        ................",
"     ...        ................",
"     ...        ................",
"                    .........   ",
"                    ........    ",
"                    ........    ",
"                    ........    "
};
