/* XPM */
static char *_a5678ee3a75435ba7cbcf0c7fa91904UcpMrinNF1dABYCs[] = {
/* columns rows colors chars-per-pixel */
"32 32 13 1 ",
"  c None",
". c #0C1820",
"X c #4E6743",
"o c #6C8C57",
"O c #7B8674",
"+ c #82A767",
"@ c #94BE75",
"# c #A8B69C",
"$ c #ADCE94",
"% c #C2DDAC",
"& c #CADABA",
"* c #D4EAC1",
"= c #E5F7D3",
/* pixels */
"        ..............          ",
"        ..............          ",
"      ..+@X.&=O.+@@@@@X..       ",
"      ..+@X.&=O.+@@@@@X..       ",
"    ..@@@@X.&===O.+@@@@@o..     ",
"    ..@@@@X.&===O.+@@@@@o..     ",
"  ..@@@@@@@@X...+@@@@@@@@@o..   ",
"  ..@@@@@@@@X...+@@@@@@@@@o..   ",
"  ..@@@@@@@@@@@@@@@@@@@@o....   ",
"  ..@@@@@@@@@@@@@@@@@@@@o....   ",
"  ....@@X...............#=#..   ",
"  ....@@X...............#=#..   ",
"  ......&===O.&=====$@@@%=#..   ",
"  ......&===O.&=====$@@@%=#..   ",
"..@@....&===O.&=======O.#=#..   ",
"..@@....&===O.&=======O.#=#..   ",
"  ....==O...+@@@*=========#..   ",
"  ....==O...+@@@*=========#..   ",
"..@@..====O.+@@@@@@@*===#..     ",
"..@@..====O.+@@@@@@@*===#..     ",
"  ....======O...+@@@@@@@@@o..   ",
"  ....======O...+@@@@@@@@@o..   ",
"    ........&===O.+@@@@@@@@@o.. ",
"    ........&===O.+@@@@@@@@@o.. ",
"    ..@@@@X.&===O...+@@@@@@@@@o.",
"    ..@@@@X.&===O...+@@@@@@@@@o.",
"      ..................o@@@o.. ",
"      ..................o@@@o.. ",
"        ..&=====O.      .....   ",
"        ..&=====O.      .....   ",
"          ........              ",
"          ........              "
};
