/* XPM */
static char *_5918_7fc2c1975bb0ac0eece690a3506b2465c3d303fb6b5921f02687c493905ed5b6[] = {
/* columns rows colors chars-per-pixel */
"32 32 126 2 ",
"   c #00111E",
".  c #00121E",
"X  c #041420",
"o  c #041520",
"O  c #051520",
"+  c #051720",
"@  c #051621",
"#  c #061621",
"$  c #061721",
"%  c #061821",
"&  c #071821",
"*  c #071921",
"=  c #021C22",
"-  c #081921",
";  c #091922",
":  c #0A1A22",
">  c #0B1A22",
",  c #0B1C22",
"<  c #0C1D22",
"1  c #0E1D23",
"2  c #0C1E22",
"3  c #0D1E22",
"4  c #0E1F23",
"5  c #081E24",
"6  c #091E24",
"7  c #0F2123",
"8  c #0A2024",
"9  c #0B2024",
"0  c #112223",
"q  c #142126",
"w  c #122424",
"e  c #142624",
"r  c #172427",
"t  c #162925",
"y  c #172A25",
"u  c #172926",
"i  c #182B26",
"p  c #1B2F27",
"a  c #1A3026",
"s  c #1B3026",
"d  c #1C3027",
"f  c #1C3127",
"g  c #1C3128",
"h  c #1D3128",
"j  c #1D3228",
"k  c #1E3228",
"l  c #1E3328",
"z  c #202C2C",
"x  c #232E2E",
"c  c #213729",
"v  c #20342A",
"b  c #233A2B",
"n  c #243B2B",
"m  c #263D2C",
"M  c #273E2C",
"N  c #263130",
"B  c #2A3432",
"V  c #2E3F33",
"C  c #333E39",
"Z  c #343E39",
"A  c #343F39",
"S  c #343F3A",
"D  c #28402D",
"F  c #304235",
"G  c #334437",
"H  c #35403A",
"J  c #36433B",
"K  c #37453B",
"L  c #38463B",
"P  c #39473C",
"I  c #3A453E",
"U  c #373C40",
"Y  c #3E4943",
"T  c #2F664F",
"R  c #306850",
"E  c #376D51",
"W  c #376E51",
"Q  c #46745B",
"!  c #81B968",
"~  c #82BA69",
"^  c #82BB69",
"/  c #83BC6A",
"(  c #83BD6A",
")  c #84BC6A",
"_  c #84BD6A",
"`  c #84BD6B",
"'  c #84BE6B",
"]  c #85BE6B",
"[  c #85BF6B",
"{  c #85BD6C",
"}  c #86BE6D",
"|  c #8ABF74",
" . c #85C06B",
".. c #86C06B",
"X. c #86C06C",
"o. c #87C16D",
"O. c #87C16E",
"+. c #88C16E",
"@. c #88C16F",
"#. c #89C16F",
"$. c #8AC172",
"%. c #8BC272",
"&. c #8BC372",
"*. c #8BC373",
"=. c #8CC373",
"-. c #8AC075",
";. c #8DC374",
":. c #8CC276",
">. c #8EC476",
",. c #8FC577",
"<. c #D9F1C9",
"1. c #DAF1C9",
"2. c #D9F2C9",
"3. c #DAF2C9",
"4. c #DAF2CA",
"5. c #DBF3CA",
"6. c #DBF3CB",
"7. c #DCF3CB",
"8. c #DBF4C9",
"9. c #DBF4CA",
"0. c #DBF5CA",
"q. c #DCF5CA",
"w. c #DCF4CB",
"e. c #DCF5CB",
"r. c #DCF4CC",
"t. c #DDF6CC",
/* pixels */
"X.X./ X.=.X.X.X.X.X.X.X.X.X.X.X.X.X.X.X.X.X.X.X.*.X.^ n X.X.X.:.",
"X.X.d / 7./ =.X.X.X.X.X.X.X.X.X.X.X.X.X.X.X.X.O.e.$.e / X.*.X.:.",
"X.X.=.j j . 7.X.X.X.X.X.X.X.X.X.X.X.X.X.X.X.X.X.+.1.& u ,.9.X.:.",
"X.X.t.X.X.S X / =./ X.X.=.X.X.X.X./ X.X./ X.X.X.%.& & N 3.X.X.:.",
"X.X.X.X...t.&   w.X / &.t.X./ =.X.& / / H / X.O.w.A & & i X.X.:.",
"X.X.X.X.=._ & S & &   7.X.X.s 7.X.j & 1 6.2 X.X.+.1.& & y / X.:.",
"` X.X.X.w.&   w.S & & X X./ / # X.X.j S & 2 X.=.[ j j j j M X.:.",
"W ` X.X.& & &   w.& & X _ & & Z X.X.X.6.& 3 ;.e.X.X.X.*./ / X.:.",
"/ E ` ` & & j j S & & S & & s t.X./ X.j & q 5.X.X.X.#.<.- M X.:.",
"# ( T T 9 5 X. .t.j   w.9 O X.X.X.S / / & & 4 / X.*.^ : P X.X.:.",
"& & & $ Q E ` ` ` ' & $ Q 6 / X.X.t.j & & & & 7 +.1.- F 0.X.X.:.",
"j & & a t.X.W T T Q 9 = r.R @ X.X.X.X.j j j j c [ ; K / X.X.X.:.",
"X.S f X.X.X._ &   w.T T T T @ / X.X.X.X.X.X.X.X.^ z 1.t X.X.X.:.",
"X.t.X.X.X.X.j j j j j j j j j h X.X.X.X.X.X.X.[ & & - n X.X.X.:.",
"X.X.X.X.X.X.X.X.X.X.X.X.X.X.X.X.X.X.X.X.X.X.X.[ j j b X.X.X.X.:.",
"X.X.X.X.X.X.X.X.X.X.=.X.X.X.X.X.X.X./ X.X.X.X.X.X.X.X.X.X.X.X.:.",
"X.X./ X.=.X.X.X.X. .7.=./ / X./ X.X.l / =.X.X.X.X.X.X.*./ X.X.:.",
"X.X.d / t./ X.X.X.=.  w.& O / h X.X.X.v 6.X.X.=.X.X.} <.m X.X.:.",
"X.X.=.o _ d X.X. .w.& & j j g X.X.=.X.*., / o.e.*.^ ; L X.X.X.:.",
"X.X.w.$ O / X.X._ & & d =.X.X.X.X.t.=.6.& < / { 4.- V 0.X.X.X.:.",
"X.X.j j j d X.X.& & X &.t.X.X.X.X./ 6.& S & & - A w / *.X.X.&.:.",
"X.X.X.X.X.X.X.X.& &   7./ / X.X./ j j 1 6.& - I 4.& x 3.) ,.8.:.",
"X.X.X.X.X.X.X.X.& & & & & O / X.j X.*.& & & r 4.* j & & B 2./ :.",
"X.X.X.=./ / X.X.j j j j j j g X.X.X.6.& & & & - J [ k A h & p | ",
"X.=./ w.% o / X.X.X.X.X.X.X.X.X.X.X.& & & & - I e.X.>.0.' h & U ",
"X.w.+ & & & Z / X.X.X.X.X./ X.X.X./ & S & & r 5./ @.q.X.X.! - Y ",
"X.$ j S j . w.C X.X./ X._ f X.X.X.& > 6.S & & & 0 / *.X.~ A D :.",
"/ d X.t.=.&   7.X.X.d _ X =.X.X./ & & 1 6.& & & & z 4.] G 9.X.:.",
"h X.X.X.w.& & X X.X._ & . 7./ X.j j j j j j j j j j b X.X.X.X.:.",
"X.X./ ( & & & d X.X.j j j j g X.X.X.X.X.X.X.X.X.X.X.X.X.X.X.X.:.",
"X.X.$ & & & X X.X.X.X.X.X.X.X.X.X.X.X.X.X.X.X.X.X.X.X.X.X.X.X.:.",
"` ` 8 9 9 9 5 ` ` ` ` ` ` ` ` ` ` ` ` ` ` ` ` ` ` ` ` / ` ` ` -."
};
